<?xml version="1.0" standalone="no"?>
<!DOCTYPE svg PUBLIC "-//W3C//DTD SVG 20010904//EN"
 "http://www.w3.org/TR/2001/REC-SVG-20010904/DTD/svg10.dtd">
<svg version="1.0" xmlns="http://www.w3.org/2000/svg"
 width="119.000000pt" height="27.000000pt" viewBox="0 0 119.000000 27.000000"
 preserveAspectRatio="xMidYMid meet">

<g transform="translate(0.000000,27.000000) scale(0.100000,-0.100000)"
fill="#000000" stroke="none">
<path d="M113 232 c-35 -15 -63 -30 -63 -33 0 -9 133 -64 147 -61 6 1 40 16
75 31 l63 29 -67 31 c-37 17 -73 31 -80 31 -7 -1 -41 -13 -75 -28z"/>
<path d="M16 181 c-6 -9 150 -81 175 -81 26 0 183 76 172 83 -6 4 -46 -9 -89
-29 -86 -40 -86 -40 -196 10 -32 14 -59 22 -62 17z"/>
<path d="M402 131 c-17 -49 -18 -61 -7 -61 8 0 17 5 20 10 8 13 45 13 45 0 0
-5 7 -10 16 -10 16 0 16 3 -11 80 -19 56 -40 50 -63 -19z m41 -1 c3 -12 0 -20
-8 -20 -8 0 -11 8 -8 20 3 11 7 20 8 20 1 0 5 -9 8 -20z"/>
<path d="M517 172 c-19 -21 -22 -54 -7 -83 12 -22 80 -28 80 -6 0 7 -12 13
-27 12 -24 0 -28 4 -28 30 0 24 4 30 22 30 29 1 41 14 23 25 -23 15 -45 12
-63 -8z"/>
<path d="M621 134 c-23 -62 -21 -75 9 -56 24 15 50 16 50 2 0 -5 7 -10 15 -10
19 0 19 -2 -6 64 -12 31 -27 56 -34 56 -7 0 -22 -25 -34 -56z m42 -4 c3 -12 0
-20 -8 -20 -8 0 -11 8 -8 20 3 11 7 20 8 20 1 0 5 -9 8 -20z"/>
<path d="M720 130 l0 -60 34 0 c19 0 42 7 50 16 38 37 3 104 -54 104 l-30 0 0
-60z m67 14 c7 -18 -7 -46 -25 -52 -8 -2 -12 9 -12 32 0 38 25 51 37 20z"/>
<path d="M840 130 l0 -60 40 0 c22 0 40 5 40 10 0 6 -11 10 -25 10 -14 0 -25
5 -25 10 0 6 9 10 20 10 11 0 20 7 20 15 0 8 -9 15 -20 15 -11 0 -20 5 -20 10
0 6 11 10 25 10 16 0 25 6 25 15 0 11 -11 15 -40 15 l-40 0 0 -60z"/>
<path d="M934 167 c12 -49 37 -97 50 -97 8 0 23 25 35 61 18 53 18 60 4 57 -9
-2 -21 -19 -28 -37 -12 -37 -18 -34 -29 12 -4 15 -13 27 -22 27 -12 0 -15 -6
-10 -23z"/>
<path d="M1062 133 c-23 -62 -21 -74 8 -55 24 15 50 16 50 2 0 -5 7 -10 15
-10 19 0 19 -1 -6 65 -11 30 -26 55 -33 55 -7 0 -23 -26 -34 -57z m41 -3 c3
-12 0 -20 -8 -20 -8 0 -11 8 -8 20 3 11 7 20 8 20 1 0 5 -9 8 -20z"/>
<path d="M80 91 c0 -28 6 -34 55 -58 l55 -27 55 27 c49 24 55 30 55 58 0 21
-4 30 -12 26 -7 -3 -32 -13 -56 -22 -44 -18 -55 -16 -144 23 -5 2 -8 -10 -8
-27z"/>
</g>
</svg>
